<svg xmlns="http://www.w3.org/2000/svg" width="640" height="460">
<rect width="100%" height="100%" fill="white"/>
<line x1="60" y1="400" x2="580" y2="400" stroke="black"/>
<line x1="60" y1="400" x2="60" y2="60" stroke="black"/>
<line x1="60" y1="400" x2="580" y2="60" stroke="#aaaaaa" stroke-dasharray="5,5"/>
<text x="320" y="30" text-anchor="middle" font-size="20">ROC Curve</text>
<text x="320" y="445" text-anchor="middle" font-size="14">False Positive Rate</text>
<text x="18" y="230" text-anchor="middle" font-size="14" transform="rotate(-90 18,230)">True Positive Rate</text>
<polyline points="60.0,400.0 60.0,399.1 60.5,399.1 60.5,398.2 60.5,397.3 60.5,396.4 61.0,396.4 61.0,395.5 61.0,394.5 61.0,393.6 61.5,393.6 61.5,392.7 61.5,391.8 61.5,390.9 61.5,390.0 61.5,389.1 61.5,388.2 61.5,387.3 61.5,386.4 62.0,386.4 62.0,385.5 62.0,384.5 62.0,383.6 62.0,382.7 62.0,381.8 62.0,380.9 62.0,380.0 62.0,379.1 62.0,378.2 62.0,377.3 62.0,376.4 62.5,376.4 62.5,375.5 63.0,375.5 63.0,374.5 63.0,373.6 63.5,373.6 63.5,372.7 63.5,371.8 64.0,371.8 64.0,370.9 64.0,370.0 64.5,370.0 64.5,369.1 64.5,368.2 64.5,367.3 64.5,366.4 64.5,365.5 64.5,364.5 64.5,363.6 64.5,362.7 64.5,361.8 64.5,360.9 64.5,360.0 64.5,359.1 64.5,358.2 64.5,357.3 64.5,356.4 64.5,355.5 64.5,354.5 64.5,353.6 64.5,352.7 64.5,351.8 65.0,351.8 65.5,351.8 65.5,350.9 65.5,350.0 65.5,349.1 65.5,348.2 66.0,348.2 66.5,348.2 66.5,347.3 66.5,346.4 66.5,345.5 66.5,344.5 66.5,343.6 67.0,343.6 67.5,343.6 67.5,342.7 68.0,342.7 68.0,341.8 68.0,340.9 68.0,340.0 68.0,339.1 68.0,338.2 68.0,337.3 68.0,336.4 68.5,336.4 68.5,335.5 68.5,334.5 69.0,334.5 69.0,333.6 69.0,332.7 69.5,332.7 69.5,331.8 69.5,330.9 70.0,330.9 70.6,330.9 71.1,330.9 71.1,330.0 71.6,330.0 71.6,329.1 71.6,328.2 72.1,328.2 72.6,328.2 72.6,327.3 72.6,326.4 73.1,326.4 73.1,325.5 73.1,324.5 73.1,323.6 73.1,322.7 73.1,321.8 73.1,320.9 73.6,320.9 73.6,320.0 73.6,319.1 73.6,318.2 73.6,317.3 74.1,317.3 74.1,316.4 74.1,315.5 74.6,315.5 75.1,315.5 75.6,315.5 75.6,314.5 75.6,313.6 75.6,312.7 75.6,311.8 75.6,310.9 76.1,310.9 76.1,310.0 76.1,309.1 76.1,308.2 76.1,307.3 76.6,307.3 76.6,306.4 76.6,305.5 76.6,304.5 76.6,303.6 76.6,302.7 76.6,301.8 76.6,300.9 77.1,300.9 77.1,300.0 77.1,299.1 77.1,298.2 77.1,297.3 77.1,296.4 77.6,296.4 78.1,296.4 78.1,295.5 78.1,294.5 78.1,293.6 78.1,292.7 78.1,291.8 78.1,290.9 78.1,290.0 78.1,289.1 78.6,289.1 79.1,289.1 79.1,288.2 79.6,288.2 80.1,288.2 80.1,287.3 80.1,286.4 80.1,285.5 80.6,285.5 80.6,284.5 80.6,283.6 80.6,282.7 80.6,281.8 80.6,280.9 80.6,280.0 80.6,279.1 81.1,279.1 81.1,278.2 81.1,277.3 81.1,276.4 81.6,276.4 81.6,275.5 81.6,274.5 81.6,273.6 81.6,272.7 82.1,272.7 82.6,272.7 82.6,271.8 83.1,271.8 83.1,270.9 83.1,270.0 83.1,269.1 83.6,269.1 83.6,268.2 84.1,268.2 84.1,267.3 84.6,267.3 85.1,267.3 85.1,266.4 85.1,265.5 85.1,264.5 85.1,263.6 85.1,262.7 85.1,261.8 85.1,260.9 85.1,260.0 85.1,259.1 85.6,259.1 86.1,259.1 86.1,258.2 86.6,258.2 87.1,258.2 87.1,257.3 87.1,256.4 87.6,256.4 87.6,255.5 87.6,254.5 87.6,253.6 88.1,253.6 88.1,252.7 88.1,251.8 88.1,250.9 88.6,250.9 88.6,250.0 89.1,250.0 89.1,249.1 89.1,248.2 89.1,247.3 89.6,247.3 89.6,246.4 89.6,245.5 89.6,244.5 89.6,243.6 89.6,242.7 90.1,242.7 90.6,242.7 91.1,242.7 91.1,241.8 91.1,240.9 91.7,240.9 91.7,240.0 91.7,239.1 91.7,238.2 92.2,238.2 92.2,237.3 92.2,236.4 92.2,235.5 92.2,234.5 92.7,234.5 93.2,234.5 93.7,234.5 93.7,233.6 93.7,232.7 93.7,231.8 94.2,231.8 94.2,230.9 94.2,230.0 94.7,230.0 94.7,229.1 94.7,228.2 95.2,228.2 95.2,227.3 95.7,227.3 95.7,226.4 96.2,226.4 96.2,225.5 96.7,225.5 97.2,225.5 97.2,224.5 97.2,223.6 97.7,223.6 98.2,223.6 98.7,223.6 98.7,222.7 99.2,222.7 99.7,222.7 99.7,221.8 99.7,220.9 99.7,220.0 99.7,219.1 99.7,218.2 99.7,217.3 99.7,216.4 99.7,215.5 99.7,214.5 100.2,214.5 100.2,213.6 100.7,213.6 100.7,212.7 100.7,211.8 101.2,211.8 101.7,211.8 101.7,210.9 102.2,210.9 102.2,210.0 102.7,210.0 102.7,209.1 102.7,208.2 102.7,207.3 102.7,206.4 103.2,206.4 103.7,206.4 104.2,206.4 104.7,206.4 105.2,206.4 105.7,206.4 105.7,205.5 106.2,205.5 106.7,205.5 107.2,205.5 107.2,204.5 107.7,204.5 108.2,204.5 108.2,203.6 108.7,203.6 109.2,203.6 109.7,203.6 109.7,202.7 109.7,201.8 110.2,201.8 110.7,201.8 111.2,201.8 111.7,201.8 112.3,201.8 112.8,201.8 113.3,201.8 113.8,201.8 114.3,201.8 114.3,200.9 114.3,200.0 114.3,199.1 114.3,198.2 114.8,198.2 115.3,198.2 115.8,198.2 116.3,198.2 116.3,197.3 116.3,196.4 116.3,195.5 116.3,194.5 116.3,193.6 116.3,192.7 116.8,192.7 117.3,192.7 117.8,192.7 118.3,192.7 118.8,192.7 118.8,191.8 118.8,190.9 119.3,190.9 119.8,190.9 120.3,190.9 120.8,190.9 121.3,190.9 121.8,190.9 122.3,190.9 122.8,190.9 123.3,190.9 123.8,190.9 124.3,190.9 124.3,190.0 124.8,190.0 125.3,190.0 125.3,189.1 125.3,188.2 125.3,187.3 125.8,187.3 125.8,186.4 126.3,186.4 126.8,186.4 127.3,186.4 127.8,186.4 128.3,186.4 128.8,186.4 129.3,186.4 129.8,186.4 129.8,185.5 129.8,184.5 130.3,184.5 130.8,184.5 130.8,183.6 130.8,182.7 130.8,181.8 131.3,181.8 131.8,181.8 131.8,180.9 131.8,180.0 132.3,180.0 132.9,180.0 132.9,179.1 133.4,179.1 133.9,179.1 134.4,179.1 134.9,179.1 134.9,178.2 134.9,177.3 135.4,177.3 135.4,176.4 135.4,175.5 135.4,174.5 135.4,173.6 135.4,172.7 135.9,172.7 136.4,172.7 136.4,171.8 136.9,171.8 137.4,171.8 137.4,170.9 137.9,170.9 138.4,170.9 138.9,170.9 139.4,170.9 139.9,170.9 139.9,170.0 139.9,169.1 140.4,169.1 140.4,168.2 140.4,167.3 140.4,166.4 140.4,165.5 140.9,165.5 140.9,164.5 141.4,164.5 141.9,164.5 142.4,164.5 142.9,164.5 143.4,164.5 143.9,164.5 143.9,163.6 143.9,162.7 143.9,161.8 143.9,160.9 143.9,160.0 144.4,160.0 144.9,160.0 145.4,160.0 145.9,160.0 146.4,160.0 146.9,160.0 147.4,160.0 147.9,160.0 148.4,160.0 148.4,159.1 148.9,159.1 148.9,158.2 149.4,158.2 149.4,157.3 149.4,156.4 149.9,156.4 150.4,156.4 150.9,156.4 151.4,156.4 151.9,156.4 152.4,156.4 152.4,155.5 152.9,155.5 153.4,155.5 153.4,154.5 154.0,154.5 154.5,154.5 155.0,154.5 155.0,153.6 155.5,153.6 155.5,152.7 155.5,151.8 156.0,151.8 156.5,151.8 157.0,151.8 157.5,151.8 158.0,151.8 158.0,150.9 158.0,150.0 158.0,149.1 158.5,149.1 158.5,148.2 159.0,148.2 159.5,148.2 160.0,148.2 160.5,148.2 161.0,148.2 161.5,148.2 162.0,148.2 162.5,148.2 163.0,148.2 163.5,148.2 164.0,148.2 164.5,148.2 165.0,148.2 165.5,148.2 165.5,147.3 166.0,147.3 166.5,147.3 167.0,147.3 167.5,147.3 168.0,147.3 168.0,146.4 168.5,146.4 168.5,145.5 169.0,145.5 169.5,145.5 170.0,145.5 170.5,145.5 171.0,145.5 171.5,145.5 171.5,144.5 171.5,143.6 172.0,143.6 172.5,143.6 172.5,142.7 173.0,142.7 173.0,141.8 173.5,141.8 174.0,141.8 174.6,141.8 175.1,141.8 175.1,140.9 175.1,140.0 175.1,139.1 175.1,138.2 175.6,138.2 176.1,138.2 176.6,138.2 177.1,138.2 177.6,138.2 178.1,138.2 178.6,138.2 179.1,138.2 179.6,138.2 180.1,138.2 180.1,137.3 180.6,137.3 181.1,137.3 181.6,137.3 181.6,136.4 182.1,136.4 182.6,136.4 183.1,136.4 183.6,136.4 183.6,135.5 184.1,135.5 184.1,134.5 184.1,133.6 184.6,133.6 185.1,133.6 185.6,133.6 185.6,132.7 185.6,131.8 186.1,131.8 186.6,131.8 187.1,131.8 187.6,131.8 188.1,131.8 188.6,131.8 188.6,130.9 189.1,130.9 189.1,130.0 189.6,130.0 189.6,129.1 189.6,128.2 190.1,128.2 190.6,128.2 190.6,127.3 191.1,127.3 191.6,127.3 191.6,126.4 192.1,126.4 192.6,126.4 192.6,125.5 193.1,125.5 193.6,125.5 194.1,125.5 194.6,125.5 195.1,125.5 195.7,125.5 196.2,125.5 196.7,125.5 197.2,125.5 197.7,125.5 198.2,125.5 198.2,124.5 198.2,123.6 198.7,123.6 199.2,123.6 199.7,123.6 200.2,123.6 200.2,122.7 200.2,121.8 200.7,121.8 201.2,121.8 201.7,121.8 202.2,121.8 202.7,121.8 202.7,120.9 203.2,120.9 203.7,120.9 204.2,120.9 204.7,120.9 205.2,120.9 205.7,120.9 206.2,120.9 206.2,120.0 206.2,119.1 206.7,119.1 206.7,118.2 207.2,118.2 207.7,118.2 208.2,118.2 208.2,117.3 208.7,117.3 209.2,117.3 209.7,117.3 209.7,116.4 210.2,116.4 210.7,116.4 211.2,116.4 211.7,116.4 212.2,116.4 212.7,116.4 213.2,116.4 213.7,116.4 214.2,116.4 214.2,115.5 214.7,115.5 215.2,115.5 215.7,115.5 216.3,115.5 216.8,115.5 217.3,115.5 217.8,115.5 218.3,115.5 218.8,115.5 219.3,115.5 219.3,114.5 219.8,114.5 220.3,114.5 220.8,114.5 221.3,114.5 221.3,113.6 221.8,113.6 222.3,113.6 222.8,113.6 223.3,113.6 223.8,113.6 224.3,113.6 224.8,113.6 224.8,112.7 224.8,111.8 225.3,111.8 225.8,111.8 225.8,110.9 226.3,110.9 226.8,110.9 227.3,110.9 227.8,110.9 228.3,110.9 228.8,110.9 228.8,110.0 229.3,110.0 229.8,110.0 229.8,109.1 230.3,109.1 230.8,109.1 231.3,109.1 231.8,109.1 231.8,108.2 231.8,107.3 232.3,107.3 232.8,107.3 232.8,106.4 233.3,106.4 233.8,106.4 234.3,106.4 234.3,105.5 234.8,105.5 235.3,105.5 235.8,105.5 236.3,105.5 236.9,105.5 236.9,104.5 237.4,104.5 237.9,104.5 237.9,103.6 238.4,103.6 238.9,103.6 239.4,103.6 239.9,103.6 240.4,103.6 240.4,102.7 240.9,102.7 241.4,102.7 241.9,102.7 242.4,102.7 242.9,102.7 243.4,102.7 243.4,101.8 243.9,101.8 244.4,101.8 244.9,101.8 245.4,101.8 245.9,101.8 246.4,101.8 246.9,101.8 247.4,101.8 247.9,101.8 248.4,101.8 248.9,101.8 249.4,101.8 249.9,101.8 249.9,100.9 250.4,100.9 250.9,100.9 251.4,100.9 251.9,100.9 252.4,100.9 252.9,100.9 253.4,100.9 253.9,100.9 254.4,100.9 254.9,100.9 255.4,100.9 255.4,100.0 255.9,100.0 256.4,100.0 256.9,100.0 257.4,100.0 258.0,100.0 258.5,100.0 259.0,100.0 259.5,100.0 260.0,100.0 260.0,99.1 260.5,99.1 261.0,99.1 261.5,99.1 262.0,99.1 262.5,99.1 263.0,99.1 263.5,99.1 263.5,98.2 264.0,98.2 264.5,98.2 264.5,97.3 265.0,97.3 265.0,96.4 265.5,96.4 266.0,96.4 266.0,95.5 266.5,95.5 267.0,95.5 267.5,95.5 267.5,94.5 267.5,93.6 268.0,93.6 268.5,93.6 269.0,93.6 269.5,93.6 269.5,92.7 270.0,92.7 270.5,92.7 271.0,92.7 271.5,92.7 272.0,92.7 272.0,91.8 272.0,90.9 272.5,90.9 273.0,90.9 273.5,90.9 274.0,90.9 274.5,90.9 275.0,90.9 275.0,90.0 275.5,90.0 276.0,90.0 276.5,90.0 277.0,90.0 277.0,89.1 277.5,89.1 278.0,89.1 278.6,89.1 279.1,89.1 279.6,89.1 280.1,89.1 280.6,89.1 281.1,89.1 281.6,89.1 282.1,89.1 282.6,89.1 282.6,88.2 283.1,88.2 283.6,88.2 283.6,87.3 284.1,87.3 284.1,86.4 284.1,85.5 284.6,85.5 285.1,85.5 285.6,85.5 286.1,85.5 286.6,85.5 287.1,85.5 287.6,85.5 288.1,85.5 288.6,85.5 289.1,85.5 289.6,85.5 290.1,85.5 290.6,85.5 291.1,85.5 291.6,85.5 292.1,85.5 292.6,85.5 293.1,85.5 293.6,85.5 294.1,85.5 294.1,84.5 294.6,84.5 295.1,84.5 295.6,84.5 295.6,83.6 296.1,83.6 296.6,83.6 297.1,83.6 297.6,83.6 298.1,83.6 298.6,83.6 299.1,83.6 299.7,83.6 300.2,83.6 300.7,83.6 301.2,83.6 301.7,83.6 302.2,83.6 302.7,83.6 302.7,82.7 303.2,82.7 303.2,81.8 303.7,81.8 304.2,81.8 304.7,81.8 305.2,81.8 305.2,80.9 305.2,80.0 305.7,80.0 306.2,80.0 306.7,80.0 307.2,80.0 307.7,80.0 308.2,80.0 308.2,79.1 308.7,79.1 309.2,79.1 309.7,79.1 310.2,79.1 310.7,79.1 311.2,79.1 311.7,79.1 312.2,79.1 312.7,79.1 313.2,79.1 313.7,79.1 314.2,79.1 314.7,79.1 315.2,79.1 315.7,79.1 316.2,79.1 316.7,79.1 316.7,78.2 317.2,78.2 317.7,78.2 318.2,78.2 318.7,78.2 319.2,78.2 319.7,78.2 320.3,78.2 320.8,78.2 321.3,78.2 321.8,78.2 322.3,78.2 322.8,78.2 323.3,78.2 323.8,78.2 324.3,78.2 324.8,78.2 325.3,78.2 325.8,78.2 326.3,78.2 326.8,78.2 327.3,78.2 327.8,78.2 328.3,78.2 328.8,78.2 329.3,78.2 329.8,78.2 330.3,78.2 330.8,78.2 330.8,77.3 330.8,76.4 331.3,76.4 331.8,76.4 332.3,76.4 332.8,76.4 333.3,76.4 333.8,76.4 334.3,76.4 334.8,76.4 335.3,76.4 335.8,76.4 336.3,76.4 336.3,75.5 336.8,75.5 337.3,75.5 337.8,75.5 337.8,74.5 338.3,74.5 338.8,74.5 339.3,74.5 339.3,73.6 339.8,73.6 340.3,73.6 340.9,73.6 341.4,73.6 341.9,73.6 342.4,73.6 342.9,73.6 343.4,73.6 343.4,72.7 343.9,72.7 344.4,72.7 344.9,72.7 345.4,72.7 345.9,72.7 346.4,72.7 346.9,72.7 347.4,72.7 347.9,72.7 348.4,72.7 348.9,72.7 349.4,72.7 349.9,72.7 350.4,72.7 350.9,72.7 351.4,72.7 351.9,72.7 352.4,72.7 352.9,72.7 353.4,72.7 353.9,72.7 354.4,72.7 354.9,72.7 355.4,72.7 355.9,72.7 356.4,72.7 356.9,72.7 356.9,71.8 357.4,71.8 357.9,71.8 358.4,71.8 358.9,71.8 359.4,71.8 359.9,71.8 360.4,71.8 360.9,71.8 361.4,71.8 362.0,71.8 362.5,71.8 363.0,71.8 363.0,70.9 363.5,70.9 364.0,70.9 364.0,70.0 364.5,70.0 365.0,70.0 365.5,70.0 366.0,70.0 366.5,70.0 367.0,70.0 367.5,70.0 368.0,70.0 368.5,70.0 369.0,70.0 369.5,70.0 370.0,70.0 370.0,69.1 370.5,69.1 371.0,69.1 371.5,69.1 372.0,69.1 372.5,69.1 373.0,69.1 373.5,69.1 374.0,69.1 374.5,69.1 375.0,69.1 375.5,69.1 376.0,69.1 376.5,69.1 377.0,69.1 377.5,69.1 378.0,69.1 378.5,69.1 379.0,69.1 379.5,69.1 380.0,69.1 380.5,69.1 381.0,69.1 381.5,69.1 382.0,69.1 382.6,69.1 383.1,69.1 383.6,69.1 384.1,69.1 384.6,69.1 385.1,69.1 385.6,69.1 386.1,69.1 386.6,69.1 387.1,69.1 387.6,69.1 388.1,69.1 388.6,69.1 389.1,69.1 389.6,69.1 390.1,69.1 390.6,69.1 391.1,69.1 391.6,69.1 392.1,69.1 392.6,69.1 393.1,69.1 393.6,69.1 394.1,69.1 394.6,69.1 395.1,69.1 395.6,69.1 396.1,69.1 396.6,69.1 397.1,69.1 397.6,69.1 397.6,68.2 398.1,68.2 398.6,68.2 399.1,68.2 399.6,68.2 400.1,68.2 400.6,68.2 401.1,68.2 401.6,68.2 401.6,67.3 402.1,67.3 402.6,67.3 403.1,67.3 403.7,67.3 404.2,67.3 404.7,67.3 405.2,67.3 405.7,67.3 406.2,67.3 406.2,66.4 406.7,66.4 407.2,66.4 407.7,66.4 408.2,66.4 408.7,66.4 409.2,66.4 409.7,66.4 410.2,66.4 410.7,66.4 410.7,65.5 411.2,65.5 411.7,65.5 412.2,65.5 412.7,65.5 413.2,65.5 413.7,65.5 414.2,65.5 414.7,65.5 415.2,65.5 415.7,65.5 416.2,65.5 416.7,65.5 417.2,65.5 417.7,65.5 418.2,65.5 418.7,65.5 419.2,65.5 419.7,65.5 420.2,65.5 420.7,65.5 421.2,65.5 421.2,64.5 421.7,64.5 422.2,64.5 422.7,64.5 423.2,64.5 423.7,64.5 424.3,64.5 424.8,64.5 425.3,64.5 425.8,64.5 426.3,64.5 426.8,64.5 427.3,64.5 427.8,64.5 428.3,64.5 428.8,64.5 429.3,64.5 429.8,64.5 430.3,64.5 430.8,64.5 431.3,64.5 431.8,64.5 432.3,64.5 432.8,64.5 433.3,64.5 433.8,64.5 434.3,64.5 434.8,64.5 435.3,64.5 435.8,64.5 436.3,64.5 436.8,64.5 437.3,64.5 437.8,64.5 438.3,64.5 438.8,64.5 438.8,63.6 439.3,63.6 439.8,63.6 440.3,63.6 440.8,63.6 441.3,63.6 441.8,63.6 442.3,63.6 442.8,63.6 443.3,63.6 443.8,63.6 444.3,63.6 444.9,63.6 444.9,62.7 445.4,62.7 445.9,62.7 446.4,62.7 446.9,62.7 447.4,62.7 447.9,62.7 448.4,62.7 448.9,62.7 449.4,62.7 449.9,62.7 450.4,62.7 450.9,62.7 451.4,62.7 451.9,62.7 452.4,62.7 452.9,62.7 453.4,62.7 453.9,62.7 454.4,62.7 454.9,62.7 455.4,62.7 455.9,62.7 456.4,62.7 456.9,62.7 457.4,62.7 457.9,62.7 458.4,62.7 458.9,62.7 459.4,62.7 459.9,62.7 460.4,62.7 460.9,62.7 460.9,61.8 460.9,60.9 461.4,60.9 461.9,60.9 462.4,60.9 462.9,60.9 463.4,60.9 463.9,60.9 464.4,60.9 464.9,60.9 465.4,60.9 466.0,60.9 466.5,60.9 467.0,60.9 467.5,60.9 468.0,60.9 468.5,60.9 469.0,60.9 469.5,60.9 470.0,60.9 470.5,60.9 471.0,60.9 471.5,60.9 472.0,60.9 472.5,60.9 473.0,60.9 473.5,60.9 474.0,60.9 474.5,60.9 475.0,60.9 475.5,60.9 476.0,60.9 476.5,60.9 477.0,60.9 477.5,60.9 478.0,60.9 478.5,60.9 478.5,60.0 479.0,60.0 479.5,60.0 480.0,60.0 480.5,60.0 481.0,60.0 481.5,60.0 482.0,60.0 482.5,60.0 483.0,60.0 483.5,60.0 484.0,60.0 484.5,60.0 485.0,60.0 485.5,60.0 486.0,60.0 486.6,60.0 487.1,60.0 487.6,60.0 488.1,60.0 488.6,60.0 489.1,60.0 489.6,60.0 490.1,60.0 490.6,60.0 491.1,60.0 491.6,60.0 492.1,60.0 492.6,60.0 493.1,60.0 493.6,60.0 494.1,60.0 494.6,60.0 495.1,60.0 495.6,60.0 496.1,60.0 496.6,60.0 497.1,60.0 497.6,60.0 498.1,60.0 498.6,60.0 499.1,60.0 499.6,60.0 500.1,60.0 500.6,60.0 501.1,60.0 501.6,60.0 502.1,60.0 502.6,60.0 503.1,60.0 503.6,60.0 504.1,60.0 504.6,60.0 505.1,60.0 505.6,60.0 506.1,60.0 506.6,60.0 507.1,60.0 507.7,60.0 508.2,60.0 508.7,60.0 509.2,60.0 509.7,60.0 510.2,60.0 510.7,60.0 511.2,60.0 511.7,60.0 512.2,60.0 512.7,60.0 513.2,60.0 513.7,60.0 514.2,60.0 514.7,60.0 515.2,60.0 515.7,60.0 516.2,60.0 516.7,60.0 517.2,60.0 517.7,60.0 518.2,60.0 518.7,60.0 519.2,60.0 519.7,60.0 520.2,60.0 520.7,60.0 521.2,60.0 521.7,60.0 522.2,60.0 522.7,60.0 523.2,60.0 523.7,60.0 524.2,60.0 524.7,60.0 525.2,60.0 525.7,60.0 526.2,60.0 526.7,60.0 527.2,60.0 527.7,60.0 528.3,60.0 528.8,60.0 529.3,60.0 529.8,60.0 530.3,60.0 530.8,60.0 531.3,60.0 531.8,60.0 532.3,60.0 532.8,60.0 533.3,60.0 533.8,60.0 534.3,60.0 534.8,60.0 535.3,60.0 535.8,60.0 536.3,60.0 536.8,60.0 537.3,60.0 537.8,60.0 538.3,60.0 538.8,60.0 539.3,60.0 539.8,60.0 540.3,60.0 540.8,60.0 541.3,60.0 541.8,60.0 542.3,60.0 542.8,60.0 543.3,60.0 543.8,60.0 544.3,60.0 544.8,60.0 545.3,60.0 545.8,60.0 546.3,60.0 546.8,60.0 547.3,60.0 547.8,60.0 548.3,60.0 548.9,60.0 549.4,60.0 549.9,60.0 550.4,60.0 550.9,60.0 551.4,60.0 551.9,60.0 552.4,60.0 552.9,60.0 553.4,60.0 553.9,60.0 554.4,60.0 554.9,60.0 555.4,60.0 555.9,60.0 556.4,60.0 556.9,60.0 557.4,60.0 557.9,60.0 558.4,60.0 558.9,60.0 559.4,60.0 559.9,60.0 560.4,60.0 560.9,60.0 561.4,60.0 561.9,60.0 562.4,60.0 562.9,60.0 563.4,60.0 563.9,60.0 564.4,60.0 564.9,60.0 565.4,60.0 565.9,60.0 566.4,60.0 566.9,60.0 567.4,60.0 567.9,60.0 568.4,60.0 568.9,60.0 569.4,60.0 570.0,60.0 570.5,60.0 571.0,60.0 571.5,60.0 572.0,60.0 572.5,60.0 573.0,60.0 573.5,60.0 574.0,60.0 574.5,60.0 575.0,60.0 575.5,60.0 576.0,60.0 576.5,60.0 577.0,60.0 577.5,60.0 578.0,60.0 578.5,60.0 579.0,60.0 579.5,60.0 580.0,60.0 580.0,60.0" fill="none" stroke="#1f77b4" stroke-width="2" />
<polyline points="60.0,400.0 60.0,399.1 60.0,398.2 60.0,397.3 60.0,396.4 60.5,396.4 60.5,395.5 60.5,394.5 60.5,393.6 60.5,392.7 60.5,391.8 60.5,390.9 60.5,390.0 60.5,389.1 60.5,388.2 60.5,387.3 60.5,386.4 60.5,385.5 60.5,384.5 60.5,383.6 60.5,382.7 60.5,381.8 60.5,380.9 60.5,380.0 60.5,379.1 60.5,378.2 60.5,377.3 60.5,376.4 60.5,375.5 61.0,375.5 61.0,374.5 61.0,373.6 61.0,372.7 61.0,371.8 61.0,370.9 61.0,370.0 61.0,369.1 61.0,368.2 61.5,368.2 61.5,367.3 61.5,366.4 61.5,365.5 61.5,364.5 62.0,364.5 62.0,363.6 62.0,362.7 62.0,361.8 62.0,360.9 62.5,360.9 62.5,360.0 62.5,359.1 63.0,359.1 63.5,359.1 63.5,358.2 63.5,357.3 63.5,356.4 63.5,355.5 63.5,354.5 63.5,353.6 63.5,352.7 63.5,351.8 63.5,350.9 63.5,350.0 63.5,349.1 63.5,348.2 63.5,347.3 63.5,346.4 64.0,346.4 64.0,345.5 64.0,344.5 64.0,343.6 64.0,342.7 64.0,341.8 64.0,340.9 64.0,340.0 64.0,339.1 64.0,338.2 64.0,337.3 64.0,336.4 64.5,336.4 64.5,335.5 64.5,334.5 65.0,334.5 65.5,334.5 66.0,334.5 66.0,333.6 66.5,333.6 67.0,333.6 67.5,333.6 68.0,333.6 68.5,333.6 68.5,332.7 68.5,331.8 68.5,330.9 68.5,330.0 68.5,329.1 68.5,328.2 69.0,328.2 69.0,327.3 69.0,326.4 69.0,325.5 69.0,324.5 69.0,323.6 69.0,322.7 69.5,322.7 69.5,321.8 69.5,320.9 70.0,320.9 70.0,320.0 70.6,320.0 70.6,319.1 70.6,318.2 71.1,318.2 71.6,318.2 72.1,318.2 72.1,317.3 72.1,316.4 72.1,315.5 72.6,315.5 73.1,315.5 73.1,314.5 73.1,313.6 73.1,312.7 73.1,311.8 73.6,311.8 73.6,310.9 73.6,310.0 73.6,309.1 74.1,309.1 74.1,308.2 74.1,307.3 74.1,306.4 74.1,305.5 74.1,304.5 74.1,303.6 74.1,302.7 74.1,301.8 74.6,301.8 74.6,300.9 74.6,300.0 74.6,299.1 75.1,299.1 75.1,298.2 75.1,297.3 75.1,296.4 75.1,295.5 75.1,294.5 75.1,293.6 75.6,293.6 76.1,293.6 76.6,293.6 76.6,292.7 77.1,292.7 77.1,291.8 77.6,291.8 77.6,290.9 77.6,290.0 78.1,290.0 78.1,289.1 78.1,288.2 78.1,287.3 78.6,287.3 78.6,286.4 78.6,285.5 78.6,284.5 78.6,283.6 78.6,282.7 79.1,282.7 79.6,282.7 80.1,282.7 80.6,282.7 81.1,282.7 81.6,282.7 81.6,281.8 82.1,281.8 82.6,281.8 82.6,280.9 83.1,280.9 83.1,280.0 83.1,279.1 83.1,278.2 83.6,278.2 84.1,278.2 84.1,277.3 84.6,277.3 84.6,276.4 84.6,275.5 84.6,274.5 84.6,273.6 84.6,272.7 84.6,271.8 85.1,271.8 85.1,270.9 85.1,270.0 85.1,269.1 85.6,269.1 85.6,268.2 86.1,268.2 86.1,267.3 86.1,266.4 86.1,265.5 86.1,264.5 86.6,264.5 87.1,264.5 87.1,263.6 87.6,263.6 87.6,262.7 87.6,261.8 87.6,260.9 88.1,260.9 88.6,260.9 88.6,260.0 88.6,259.1 88.6,258.2 88.6,257.3 88.6,256.4 89.1,256.4 89.1,255.5 89.1,254.5 89.6,254.5 89.6,253.6 90.1,253.6 90.1,252.7 90.1,251.8 90.1,250.9 90.1,250.0 90.6,250.0 90.6,249.1 91.1,249.1 91.1,248.2 91.7,248.2 92.2,248.2 92.7,248.2 92.7,247.3 92.7,246.4 93.2,246.4 93.2,245.5 93.2,244.5 93.2,243.6 93.2,242.7 93.2,241.8 93.2,240.9 93.2,240.0 93.7,240.0 93.7,239.1 94.2,239.1 94.2,238.2 94.2,237.3 94.2,236.4 94.2,235.5 94.7,235.5 95.2,235.5 95.2,234.5 95.2,233.6 95.2,232.7 95.2,231.8 95.7,231.8 96.2,231.8 96.7,231.8 96.7,230.9 96.7,230.0 97.2,230.0 97.2,229.1 97.2,228.2 97.7,228.2 97.7,227.3 97.7,226.4 98.2,226.4 98.2,225.5 98.7,225.5 98.7,224.5 99.2,224.5 99.2,223.6 99.2,222.7 99.7,222.7 100.2,222.7 100.2,221.8 100.7,221.8 101.2,221.8 101.7,221.8 102.2,221.8 102.7,221.8 102.7,220.9 102.7,220.0 103.2,220.0 103.7,220.0 104.2,220.0 104.2,219.1 104.2,218.2 104.7,218.2 104.7,217.3 104.7,216.4 105.2,216.4 105.7,216.4 105.7,215.5 106.2,215.5 106.2,214.5 106.2,213.6 106.2,212.7 106.2,211.8 106.2,210.9 106.2,210.0 106.7,210.0 107.2,210.0 107.7,210.0 107.7,209.1 107.7,208.2 107.7,207.3 107.7,206.4 108.2,206.4 108.7,206.4 109.2,206.4 109.7,206.4 109.7,205.5 109.7,204.5 109.7,203.6 110.2,203.6 110.2,202.7 110.7,202.7 111.2,202.7 111.2,201.8 111.7,201.8 112.3,201.8 112.3,200.9 112.3,200.0 112.3,199.1 112.3,198.2 112.3,197.3 112.3,196.4 112.3,195.5 112.8,195.5 112.8,194.5 113.3,194.5 113.3,193.6 113.8,193.6 114.3,193.6 114.3,192.7 114.3,191.8 114.3,190.9 114.8,190.9 115.3,190.9 115.3,190.0 115.3,189.1 115.3,188.2 115.3,187.3 115.8,187.3 115.8,186.4 116.3,186.4 116.8,186.4 117.3,186.4 117.8,186.4 118.3,186.4 118.8,186.4 119.3,186.4 119.8,186.4 120.3,186.4 120.8,186.4 121.3,186.4 121.8,186.4 121.8,185.5 122.3,185.5 122.3,184.5 122.8,184.5 122.8,183.6 123.3,183.6 123.8,183.6 124.3,183.6 124.8,183.6 125.3,183.6 125.8,183.6 125.8,182.7 125.8,181.8 125.8,180.9 125.8,180.0 126.3,180.0 126.3,179.1 126.3,178.2 126.8,178.2 126.8,177.3 127.3,177.3 127.8,177.3 128.3,177.3 128.3,176.4 128.8,176.4 129.3,176.4 129.8,176.4 130.3,176.4 130.8,176.4 131.3,176.4 131.3,175.5 131.3,174.5 131.3,173.6 131.8,173.6 132.3,173.6 132.9,173.6 133.4,173.6 133.4,172.7 133.9,172.7 133.9,171.8 134.4,171.8 134.4,170.9 134.9,170.9 135.4,170.9 135.9,170.9 136.4,170.9 136.9,170.9 137.4,170.9 137.9,170.9 138.4,170.9 138.9,170.9 138.9,170.0 139.4,170.0 139.9,170.0 140.4,170.0 140.9,170.0 141.4,170.0 141.4,169.1 141.4,168.2 141.4,167.3 141.4,166.4 141.9,166.4 141.9,165.5 142.4,165.5 142.4,164.5 142.9,164.5 143.4,164.5 143.9,164.5 143.9,163.6 144.4,163.6 144.9,163.6 145.4,163.6 145.9,163.6 146.4,163.6 146.9,163.6 147.4,163.6 147.4,162.7 147.4,161.8 147.9,161.8 148.4,161.8 148.9,161.8 148.9,160.9 149.4,160.9 149.4,160.0 149.9,160.0 150.4,160.0 150.9,160.0 150.9,159.1 151.4,159.1 151.4,158.2 151.9,158.2 152.4,158.2 152.4,157.3 152.9,157.3 153.4,157.3 154.0,157.3 154.0,156.4 154.0,155.5 154.0,154.5 154.0,153.6 154.0,152.7 154.5,152.7 155.0,152.7 155.5,152.7 156.0,152.7 156.5,152.7 157.0,152.7 157.5,152.7 158.0,152.7 158.5,152.7 159.0,152.7 159.5,152.7 159.5,151.8 160.0,151.8 160.5,151.8 161.0,151.8 161.5,151.8 162.0,151.8 162.0,150.9 162.0,150.0 162.5,150.0 162.5,149.1 162.5,148.2 163.0,148.2 163.5,148.2 164.0,148.2 164.0,147.3 164.5,147.3 164.5,146.4 165.0,146.4 165.5,146.4 165.5,145.5 166.0,145.5 166.5,145.5 167.0,145.5 167.5,145.5 167.5,144.5 167.5,143.6 168.0,143.6 168.0,142.7 168.0,141.8 168.5,141.8 168.5,140.9 169.0,140.9 169.0,140.0 169.5,140.0 169.5,139.1 170.0,139.1 170.5,139.1 171.0,139.1 171.5,139.1 171.5,138.2 172.0,138.2 172.5,138.2 173.0,138.2 173.5,138.2 174.0,138.2 174.6,138.2 175.1,138.2 175.6,138.2 176.1,138.2 176.6,138.2 176.6,137.3 177.1,137.3 177.6,137.3 178.1,137.3 178.6,137.3 179.1,137.3 179.6,137.3 180.1,137.3 180.6,137.3 180.6,136.4 180.6,135.5 180.6,134.5 180.6,133.6 181.1,133.6 181.1,132.7 181.6,132.7 182.1,132.7 182.6,132.7 183.1,132.7 183.1,131.8 183.1,130.9 183.6,130.9 183.6,130.0 184.1,130.0 184.1,129.1 184.6,129.1 184.6,128.2 185.1,128.2 185.6,128.2 186.1,128.2 186.6,128.2 186.6,127.3 186.6,126.4 187.1,126.4 187.6,126.4 188.1,126.4 188.6,126.4 188.6,125.5 189.1,125.5 189.6,125.5 190.1,125.5 190.1,124.5 190.6,124.5 191.1,124.5 191.1,123.6 191.6,123.6 192.1,123.6 192.6,123.6 193.1,123.6 193.6,123.6 194.1,123.6 194.1,122.7 194.6,122.7 195.1,122.7 195.1,121.8 195.7,121.8 196.2,121.8 196.7,121.8 197.2,121.8 197.7,121.8 198.2,121.8 198.2,120.9 198.7,120.9 198.7,120.0 198.7,119.1 199.2,119.1 199.7,119.1 200.2,119.1 200.7,119.1 201.2,119.1 201.7,119.1 201.7,118.2 202.2,118.2 202.7,118.2 203.2,118.2 203.7,118.2 203.7,117.3 204.2,117.3 204.7,117.3 205.2,117.3 205.7,117.3 206.2,117.3 206.7,117.3 206.7,116.4 207.2,116.4 207.7,116.4 208.2,116.4 208.7,116.4 209.2,116.4 209.7,116.4 210.2,116.4 210.7,116.4 210.7,115.5 211.2,115.5 211.7,115.5 212.2,115.5 212.7,115.5 213.2,115.5 213.7,115.5 214.2,115.5 214.7,115.5 215.2,115.5 215.7,115.5 216.3,115.5 216.8,115.5 217.3,115.5 217.3,114.5 217.3,113.6 217.8,113.6 218.3,113.6 218.3,112.7 218.3,111.8 218.8,111.8 219.3,111.8 219.8,111.8 220.3,111.8 220.8,111.8 221.3,111.8 221.8,111.8 221.8,110.9 221.8,110.0 222.3,110.0 222.3,109.1 222.8,109.1 223.3,109.1 223.8,109.1 223.8,108.2 224.3,108.2 224.3,107.3 224.8,107.3 225.3,107.3 225.8,107.3 226.3,107.3 226.8,107.3 227.3,107.3 227.8,107.3 228.3,107.3 228.8,107.3 229.3,107.3 229.8,107.3 230.3,107.3 230.8,107.3 231.3,107.3 231.8,107.3 232.3,107.3 232.3,106.4 232.8,106.4 233.3,106.4 233.8,106.4 234.3,106.4 234.8,106.4 235.3,106.4 235.3,105.5 235.3,104.5 235.3,103.6 235.8,103.6 236.3,103.6 236.9,103.6 237.4,103.6 237.9,103.6 238.4,103.6 238.9,103.6 239.4,103.6 239.4,102.7 239.9,102.7 240.4,102.7 240.9,102.7 240.9,101.8 241.4,101.8 241.4,100.9 241.4,100.0 241.9,100.0 241.9,99.1 242.4,99.1 242.4,98.2 242.4,97.3 242.9,97.3 243.4,97.3 243.4,96.4 243.4,95.5 243.4,94.5 243.9,94.5 244.4,94.5 244.9,94.5 245.4,94.5 245.9,94.5 246.4,94.5 246.4,93.6 246.9,93.6 247.4,93.6 247.9,93.6 248.4,93.6 248.9,93.6 249.4,93.6 249.9,93.6 249.9,92.7 250.4,92.7 250.9,92.7 251.4,92.7 251.4,91.8 251.9,91.8 252.4,91.8 252.9,91.8 253.4,91.8 253.9,91.8 253.9,90.9 254.4,90.9 254.9,90.9 255.4,90.9 255.9,90.9 256.4,90.9 256.9,90.9 257.4,90.9 257.4,90.0 258.0,90.0 258.5,90.0 259.0,90.0 259.5,90.0 259.5,89.1 260.0,89.1 260.5,89.1 261.0,89.1 261.0,88.2 261.5,88.2 261.5,87.3 262.0,87.3 262.0,86.4 262.5,86.4 263.0,86.4 263.5,86.4 263.5,85.5 264.0,85.5 264.5,85.5 265.0,85.5 265.5,85.5 266.0,85.5 266.5,85.5 267.0,85.5 267.0,84.5 267.0,83.6 267.5,83.6 268.0,83.6 268.5,83.6 269.0,83.6 269.5,83.6 270.0,83.6 270.5,83.6 271.0,83.6 271.5,83.6 271.5,82.7 272.0,82.7 272.0,81.8 272.5,81.8 273.0,81.8 273.5,81.8 274.0,81.8 274.5,81.8 275.0,81.8 275.5,81.8 275.5,80.9 276.0,80.9 276.5,80.9 277.0,80.9 277.5,80.9 277.5,80.0 278.0,80.0 278.6,80.0 279.1,80.0 279.6,80.0 280.1,80.0 280.6,80.0 281.1,80.0 281.6,80.0 282.1,80.0 282.6,80.0 283.1,80.0 283.6,80.0 284.1,80.0 284.6,80.0 285.1,80.0 285.6,80.0 286.1,80.0 286.6,80.0 287.1,80.0 287.6,80.0 288.1,80.0 288.6,80.0 289.1,80.0 289.6,80.0 290.1,80.0 290.6,80.0 291.1,80.0 291.6,80.0 292.1,80.0 292.6,80.0 293.1,80.0 293.6,80.0 294.1,80.0 294.6,80.0 295.1,80.0 295.6,80.0 296.1,80.0 296.6,80.0 297.1,80.0 297.6,80.0 298.1,80.0 298.6,80.0 299.1,80.0 299.7,80.0 300.2,80.0 300.7,80.0 301.2,80.0 301.7,80.0 302.2,80.0 302.7,80.0 303.2,80.0 303.7,80.0 304.2,80.0 304.7,80.0 305.2,80.0 305.7,80.0 306.2,80.0 306.7,80.0 307.2,80.0 307.2,79.1 307.7,79.1 308.2,79.1 308.7,79.1 308.7,78.2 309.2,78.2 309.7,78.2 310.2,78.2 310.7,78.2 311.2,78.2 311.7,78.2 312.2,78.2 312.7,78.2 313.2,78.2 313.7,78.2 314.2,78.2 314.7,78.2 315.2,78.2 315.7,78.2 316.2,78.2 316.2,77.3 316.7,77.3 317.2,77.3 317.7,77.3 318.2,77.3 318.7,77.3 319.2,77.3 319.7,77.3 319.7,76.4 320.3,76.4 320.8,76.4 321.3,76.4 321.8,76.4 322.3,76.4 322.8,76.4 323.3,76.4 323.8,76.4 324.3,76.4 324.8,76.4 325.3,76.4 325.8,76.4 326.3,76.4 326.8,76.4 327.3,76.4 327.8,76.4 328.3,76.4 328.8,76.4 329.3,76.4 329.8,76.4 329.8,75.5 329.8,74.5 330.3,74.5 330.8,74.5 331.3,74.5 331.8,74.5 332.3,74.5 332.8,74.5 333.3,74.5 333.8,74.5 334.3,74.5 334.8,74.5 335.3,74.5 335.8,74.5 336.3,74.5 336.8,74.5 337.3,74.5 337.8,74.5 338.3,74.5 338.8,74.5 339.3,74.5 339.8,74.5 340.3,74.5 340.3,73.6 340.9,73.6 341.4,73.6 341.9,73.6 341.9,72.7 341.9,71.8 342.4,71.8 342.4,70.9 342.9,70.9 343.4,70.9 343.9,70.9 344.4,70.9 344.9,70.9 344.9,70.0 345.4,70.0 345.9,70.0 346.4,70.0 346.9,70.0 347.4,70.0 347.9,70.0 348.4,70.0 348.9,70.0 349.4,70.0 349.4,69.1 349.9,69.1 349.9,68.2 350.4,68.2 350.9,68.2 351.4,68.2 351.9,68.2 352.4,68.2 352.9,68.2 353.4,68.2 353.9,68.2 354.4,68.2 354.9,68.2 355.4,68.2 355.9,68.2 356.4,68.2 356.9,68.2 357.4,68.2 357.9,68.2 358.4,68.2 358.9,68.2 359.4,68.2 359.9,68.2 360.4,68.2 360.9,68.2 361.4,68.2 362.0,68.2 362.5,68.2 363.0,68.2 363.5,68.2 364.0,68.2 364.5,68.2 365.0,68.2 365.5,68.2 366.0,68.2 366.5,68.2 367.0,68.2 367.5,68.2 368.0,68.2 368.5,68.2 369.0,68.2 369.5,68.2 370.0,68.2 370.5,68.2 371.0,68.2 371.5,68.2 372.0,68.2 372.5,68.2 373.0,68.2 373.5,68.2 374.0,68.2 374.5,68.2 375.0,68.2 375.5,68.2 376.0,68.2 376.0,67.3 376.5,67.3 377.0,67.3 377.5,67.3 378.0,67.3 378.5,67.3 379.0,67.3 379.5,67.3 380.0,67.3 380.5,67.3 381.0,67.3 381.5,67.3 382.0,67.3 382.6,67.3 383.1,67.3 383.6,67.3 384.1,67.3 384.6,67.3 384.6,66.4 385.1,66.4 385.6,66.4 386.1,66.4 386.6,66.4 387.1,66.4 387.6,66.4 388.1,66.4 388.6,66.4 389.1,66.4 389.6,66.4 390.1,66.4 390.6,66.4 391.1,66.4 391.6,66.4 392.1,66.4 392.6,66.4 393.1,66.4 393.6,66.4 394.1,66.4 394.6,66.4 395.1,66.4 395.6,66.4 396.1,66.4 396.6,66.4 397.1,66.4 397.6,66.4 398.1,66.4 398.6,66.4 399.1,66.4 399.1,65.5 399.6,65.5 400.1,65.5 400.6,65.5 401.1,65.5 401.6,65.5 402.1,65.5 402.6,65.5 403.1,65.5 403.1,64.5 403.7,64.5 404.2,64.5 404.7,64.5 405.2,64.5 405.7,64.5 406.2,64.5 406.7,64.5 407.2,64.5 407.7,64.5 408.2,64.5 408.7,64.5 409.2,64.5 409.7,64.5 410.2,64.5 410.7,64.5 411.2,64.5 411.7,64.5 412.2,64.5 412.7,64.5 413.2,64.5 413.7,64.5 414.2,64.5 414.2,63.6 414.7,63.6 415.2,63.6 415.7,63.6 416.2,63.6 416.7,63.6 417.2,63.6 417.7,63.6 418.2,63.6 418.7,63.6 419.2,63.6 419.7,63.6 420.2,63.6 420.7,63.6 421.2,63.6 421.7,63.6 422.2,63.6 422.7,63.6 423.2,63.6 423.7,63.6 424.3,63.6 424.8,63.6 425.3,63.6 425.8,63.6 426.3,63.6 426.8,63.6 427.3,63.6 427.8,63.6 428.3,63.6 428.8,63.6 429.3,63.6 429.8,63.6 430.3,63.6 430.8,63.6 430.8,62.7 431.3,62.7 431.8,62.7 432.3,62.7 432.8,62.7 433.3,62.7 433.8,62.7 434.3,62.7 434.8,62.7 435.3,62.7 435.8,62.7 436.3,62.7 436.8,62.7 437.3,62.7 437.8,62.7 438.3,62.7 438.8,62.7 439.3,62.7 439.8,62.7 440.3,62.7 440.8,62.7 441.3,62.7 441.8,62.7 442.3,62.7 442.8,62.7 443.3,62.7 443.8,62.7 444.3,62.7 444.9,62.7 445.4,62.7 445.9,62.7 446.4,62.7 446.9,62.7 447.4,62.7 447.9,62.7 448.4,62.7 448.9,62.7 449.4,62.7 449.9,62.7 450.4,62.7 450.9,62.7 451.4,62.7 451.9,62.7 452.4,62.7 452.9,62.7 453.4,62.7 453.9,62.7 454.4,62.7 454.9,62.7 455.4,62.7 455.9,62.7 456.4,62.7 456.9,62.7 457.4,62.7 457.9,62.7 458.4,62.7 458.9,62.7 459.4,62.7 459.4,61.8 459.9,61.8 459.9,60.9 460.4,60.9 460.9,60.9 461.4,60.9 461.9,60.9 462.4,60.9 462.9,60.9 463.4,60.9 463.9,60.9 464.4,60.9 464.9,60.9 465.4,60.9 466.0,60.9 466.5,60.9 467.0,60.9 467.5,60.9 468.0,60.9 468.5,60.9 469.0,60.9 469.5,60.9 470.0,60.9 470.5,60.9 471.0,60.9 471.5,60.9 472.0,60.9 472.5,60.9 473.0,60.9 473.5,60.9 474.0,60.9 474.5,60.9 475.0,60.9 475.0,60.0 475.5,60.0 476.0,60.0 476.5,60.0 477.0,60.0 477.5,60.0 478.0,60.0 478.5,60.0 479.0,60.0 479.5,60.0 480.0,60.0 480.5,60.0 481.0,60.0 481.5,60.0 482.0,60.0 482.5,60.0 483.0,60.0 483.5,60.0 484.0,60.0 484.5,60.0 485.0,60.0 485.5,60.0 486.0,60.0 486.6,60.0 487.1,60.0 487.6,60.0 488.1,60.0 488.6,60.0 489.1,60.0 489.6,60.0 490.1,60.0 490.6,60.0 491.1,60.0 491.6,60.0 492.1,60.0 492.6,60.0 493.1,60.0 493.6,60.0 494.1,60.0 494.6,60.0 495.1,60.0 495.6,60.0 496.1,60.0 496.6,60.0 497.1,60.0 497.6,60.0 498.1,60.0 498.6,60.0 499.1,60.0 499.6,60.0 500.1,60.0 500.6,60.0 501.1,60.0 501.6,60.0 502.1,60.0 502.6,60.0 503.1,60.0 503.6,60.0 504.1,60.0 504.6,60.0 505.1,60.0 505.6,60.0 506.1,60.0 506.6,60.0 507.1,60.0 507.7,60.0 508.2,60.0 508.7,60.0 509.2,60.0 509.7,60.0 510.2,60.0 510.7,60.0 511.2,60.0 511.7,60.0 512.2,60.0 512.7,60.0 513.2,60.0 513.7,60.0 514.2,60.0 514.7,60.0 515.2,60.0 515.7,60.0 516.2,60.0 516.7,60.0 517.2,60.0 517.7,60.0 518.2,60.0 518.7,60.0 519.2,60.0 519.7,60.0 520.2,60.0 520.7,60.0 521.2,60.0 521.7,60.0 522.2,60.0 522.7,60.0 523.2,60.0 523.7,60.0 524.2,60.0 524.7,60.0 525.2,60.0 525.7,60.0 526.2,60.0 526.7,60.0 527.2,60.0 527.7,60.0 528.3,60.0 528.8,60.0 529.3,60.0 529.8,60.0 530.3,60.0 530.8,60.0 531.3,60.0 531.8,60.0 532.3,60.0 532.8,60.0 533.3,60.0 533.8,60.0 534.3,60.0 534.8,60.0 535.3,60.0 535.8,60.0 536.3,60.0 536.8,60.0 537.3,60.0 537.8,60.0 538.3,60.0 538.8,60.0 539.3,60.0 539.8,60.0 540.3,60.0 540.8,60.0 541.3,60.0 541.8,60.0 542.3,60.0 542.8,60.0 543.3,60.0 543.8,60.0 544.3,60.0 544.8,60.0 545.3,60.0 545.8,60.0 546.3,60.0 546.8,60.0 547.3,60.0 547.8,60.0 548.3,60.0 548.9,60.0 549.4,60.0 549.9,60.0 550.4,60.0 550.9,60.0 551.4,60.0 551.9,60.0 552.4,60.0 552.9,60.0 553.4,60.0 553.9,60.0 554.4,60.0 554.9,60.0 555.4,60.0 555.9,60.0 556.4,60.0 556.9,60.0 557.4,60.0 557.9,60.0 558.4,60.0 558.9,60.0 559.4,60.0 559.9,60.0 560.4,60.0 560.9,60.0 561.4,60.0 561.9,60.0 562.4,60.0 562.9,60.0 563.4,60.0 563.9,60.0 564.4,60.0 564.9,60.0 565.4,60.0 565.9,60.0 566.4,60.0 566.9,60.0 567.4,60.0 567.9,60.0 568.4,60.0 568.9,60.0 569.4,60.0 570.0,60.0 570.5,60.0 571.0,60.0 571.5,60.0 572.0,60.0 572.5,60.0 573.0,60.0 573.5,60.0 574.0,60.0 574.5,60.0 575.0,60.0 575.5,60.0 576.0,60.0 576.5,60.0 577.0,60.0 577.5,60.0 578.0,60.0 578.5,60.0 579.0,60.0 579.5,60.0 580.0,60.0 580.0,60.0" fill="none" stroke="#d62728" stroke-width="2" />
<text x="470" y="75" font-size="13" fill="#1f77b4">Logistic Regression</text>
<text x="470" y="95" font-size="13" fill="#d62728">Random Forest</text>
</svg>